<svg width="17" height="24" viewBox="0 0 17 24" fill="none" xmlns="http://www.w3.org/2000/svg">
<path fill-rule="evenodd" clip-rule="evenodd" d="M8.50375 7.19086C7.53792 7.19086 6.6107 7.35628 5.74715 7.65743V4.68C5.74715 3.17286 6.98383 1.94657 8.50375 1.94657C10.0237 1.94657 11.2601 3.17286 11.2601 4.68C11.2601 5.15343 11.647 5.53714 12.1245 5.53714C12.6019 5.53714 12.9889 5.15343 12.9889 4.68C12.9889 2.22771 10.9768 0.232285 8.50375 0.232285C6.03039 0.232285 4.01834 2.22743 4.01834 4.68V8.49457C1.70375 9.96543 0.16539 12.5369 0.16539 15.4591C0.16539 20.0183 3.90597 23.7274 8.50375 23.7274C13.1015 23.7274 16.8421 20.0183 16.8421 15.4591C16.8421 10.9 13.1015 7.19086 8.50375 7.19086ZM8.50375 22.0134C4.85941 22.0134 1.8942 19.0731 1.8942 15.4594C1.8942 11.8457 4.85941 8.90543 8.50375 8.90543C12.1481 8.90543 15.1133 11.8457 15.1133 15.4594C15.1133 19.0731 12.1481 22.0134 8.50375 22.0134Z" fill="#D2D2D2"/>
<path fill-rule="evenodd" clip-rule="evenodd" d="M8.50375 11.5057C6.56287 11.5057 4.9836 13.0714 4.9836 14.9963C4.9836 15.8451 5.29795 16.664 5.85665 17.2968V17.3731C5.85665 18.498 6.77955 19.4128 7.91394 19.4128H9.09356C10.228 19.4128 11.1506 18.498 11.1506 17.3731V17.2968C11.7095 16.6637 12.0239 15.8451 12.0239 14.9963C12.0236 13.0714 10.4446 11.5057 8.50375 11.5057ZM9.70585 16.3128C9.5249 16.4754 9.42175 16.706 9.42175 16.9483V17.3734C9.42175 17.5528 9.27451 17.6988 9.09356 17.6988H7.91394C7.73299 17.6988 7.58546 17.5528 7.58546 17.3734V16.9483C7.58546 16.7063 7.48231 16.4754 7.30136 16.3128C6.92707 15.9766 6.71241 15.4968 6.71241 14.9963C6.71241 14.0168 7.51602 13.22 8.50375 13.22C9.49148 13.22 10.2951 14.0168 10.2951 14.9963C10.2948 15.4966 10.0801 15.9763 9.70585 16.3128Z" fill="#D2D2D2"/>
</svg>
